<?xml version="1.0" standalone="no"?>
<!DOCTYPE svg PUBLIC "-//W3C//DTD SVG 20010904//EN"
 "http://www.w3.org/TR/2001/REC-SVG-20010904/DTD/svg10.dtd">
<svg version="1.0" xmlns="http://www.w3.org/2000/svg"
 width="5001.000000pt" height="1459.000000pt" viewBox="0 0 5001.000000 1459.000000"
 preserveAspectRatio="xMidYMid meet">

<defs>
  <filter id="glow">
    <feGaussianBlur stdDeviation="5" result="coloredBlur"/>
    <feMerge>
      <feMergeNode in="coloredBlur"/>
      <feMergeNode in="SourceGraphic"/>
    </feMerge>
  </filter>
</defs>
<g transform="translate(0.000000,1459.000000) scale(0.100000,-0.100000)"
fill="#000000" stroke="none" filter="url(#glow)">
<path d="M6735 12463 c-705 -59 -1292 -221 -1895 -523 -1076 -539 -1939 -1477
-2388 -2595 -650 -1621 -409 -3470 634 -4858 273 -363 647 -738 997 -999 771
-575 1625 -900 2597 -989 195 -18 658 -15 860 5 298 30 531 70 789 137 1746
451 3108 1796 3581 3539 193 710 223 1513 85 2232 -169 872 -550 1658 -1134
2338 -127 147 -423 439 -571 561 -813 675 -1756 1059 -2815 1149 -109 9 -643
11 -740 3z m1398 -1302 c110 -39 180 -83 262 -166 129 -129 186 -265 187 -450
0 -122 -19 -200 -74 -310 -40 -78 -69 -108 -1072 -1112 l-1030 -1032 830 -3
829 -3 73 -27 c104 -38 176 -83 252 -158 76 -76 132 -167 163 -265 18 -57 22
-94 22 -195 0 -101 -4 -138 -22 -195 -47 -148 -55 -158 -672 -778 l-575 -577
581 -583 c577 -579 581 -582 622 -667 60 -125 74 -192 69 -330 -4 -90 -11
-130 -30 -182 -36 -97 -84 -173 -153 -243 -199 -201 -496 -249 -754 -124 l-86
42 -838 836 c-552 551 -851 856 -877 896 -105 161 -133 361 -78 545 41 135 73
177 347 453 l255 257 -799 0 c-896 0 -877 -1 -1021 71 -334 165 -458 576 -273
907 25 45 377 402 1658 1683 1521 1521 1631 1628 1696 1661 67 34 142 61 195
72 61 12 256 -2 313 -23z"/>
<path d="M17790 10947 c-111 -34 -176 -73 -261 -157 -322 -319 -194 -870 236
-1016 159 -54 349 -42 498 30 217 105 338 305 338 554 -1 216 -90 391 -258
506 -108 73 -192 98 -348 102 -113 4 -140 1 -205 -19z"/>
<path d="M15580 10829 c-573 -66 -912 -332 -1040 -815 -44 -165 -52 -255 -57
-611 l-5 -343 -419 0 -419 0 0 -450 0 -450 420 0 420 0 0 -1975 0 -1975 520 0
520 0 0 1975 0 1975 650 0 650 0 0 450 0 450 -660 0 -660 0 0 243 c0 133 5
271 11 307 26 165 118 267 280 311 30 8 198 13 537 16 l492 4 0 450 0 449
-582 -1 c-321 -1 -617 -5 -658 -10z"/>
<path d="M26980 7525 l0 -3315 448 0 448 0 58 333 c32 182 60 338 62 346 3 8
18 -5 41 -35 276 -368 687 -600 1203 -681 157 -24 516 -24 681 0 646 96 1169
418 1521 938 223 328 365 739 414 1194 22 208 15 611 -16 810 -89 591 -320
1067 -686 1415 -317 300 -724 492 -1191 559 -613 89 -1154 -34 -1578 -358 -87
-66 -238 -214 -311 -304 l-64 -79 0 1246 0 1246 -515 0 -515 0 0 -3315z m2735
687 c419 -91 746 -353 935 -746 165 -344 217 -788 144 -1216 -46 -268 -156
-525 -313 -727 -184 -239 -435 -398 -741 -470 -130 -30 -386 -42 -523 -24
-366 49 -672 227 -893 521 -79 104 -182 308 -228 451 -115 354 -127 803 -30
1169 152 579 558 966 1109 1055 127 20 418 13 540 -13z"/>
<path d="M23985 9110 c-476 -43 -866 -181 -1220 -431 -49 -35 -146 -119 -216
-187 -205 -198 -323 -359 -449 -617 -122 -246 -195 -487 -245 -805 -26 -162
-32 -604 -11 -790 133 -1158 851 -1916 1986 -2094 368 -58 794 -42 1127 43
432 109 807 331 1075 636 232 264 383 573 464 953 l4 22 -513 0 -513 0 -23
-71 c-12 -39 -45 -114 -71 -167 -112 -222 -267 -370 -504 -483 -206 -98 -406
-135 -681 -126 -115 4 -202 13 -267 27 -449 95 -784 389 -936 821 -51 145 -92
375 -92 519 l0 50 1827 2 1827 3 10 45 c5 25 10 169 10 320 1 307 -9 405 -70
650 -101 414 -273 734 -544 1014 -306 316 -664 509 -1136 611 -235 51 -606 76
-839 55z m530 -845 c50 -9 137 -32 194 -51 424 -141 701 -467 791 -931 11 -57
20 -106 20 -109 0 -2 -580 -4 -1290 -4 -1094 0 -1290 2 -1290 14 0 37 33 182
59 258 158 467 553 775 1081 842 70 9 347 -3 435 -19z"/>
<path d="M34365 9114 c-205 -20 -278 -30 -395 -54 -469 -97 -849 -303 -1165
-632 -362 -376 -577 -869 -641 -1470 -31 -297 -10 -714 51 -988 210 -946 865
-1580 1821 -1763 216 -42 333 -52 594 -51 261 0 385 13 590 59 797 179 1379
729 1569 1484 17 68 31 127 31 132 0 5 -224 9 -513 9 l-512 0 -23 -72 c-51
-164 -159 -336 -287 -456 -229 -215 -534 -322 -915 -322 -516 1 -919 219
-1153 625 -112 193 -176 422 -193 692 l-7 103 1829 2 1828 3 7 35 c4 19 12
103 18 185 22 320 -28 692 -135 1008 -279 820 -939 1336 -1855 1452 -120 15
-462 27 -544 19z m363 -835 c487 -52 848 -313 1017 -733 34 -82 75 -237 90
-333 l7 -43 -1291 0 c-927 0 -1291 3 -1291 11 0 6 9 55 20 110 50 246 159 450
334 625 282 282 677 411 1114 363z"/>
<path d="M17450 6635 l0 -2425 515 0 515 0 0 2425 0 2425 -515 0 -515 0 0
-2425z"/>
<path d="M19140 6635 l0 -2425 515 0 514 0 4 1343 c3 1218 5 1352 21 1450 77
483 281 809 606 972 204 101 287 116 698 122 l332 5 0 479 0 479 -193 0 c-287
0 -495 -29 -702 -97 -298 -98 -550 -295 -726 -566 -34 -53 -39 -56 -43 -35 -7
32 -106 673 -106 687 0 8 -125 11 -460 11 l-460 0 0 -2425z"/>
<path d="M37300 6635 l0 -2425 515 0 515 0 0 1273 c0 785 4 1314 10 1382 52
558 260 930 620 1110 204 101 287 116 698 122 l332 5 0 479 0 479 -193 0
c-565 0 -938 -129 -1232 -424 -55 -56 -129 -142 -164 -193 -62 -87 -81 -103
-81 -65 0 9 -23 167 -52 350 l-52 332 -458 0 -458 0 0 -2425z"/>
<path d="M40360 6635 l0 -2425 515 0 515 0 0 1263 c0 1260 3 1391 36 1587 36
214 122 439 223 588 149 220 376 367 661 428 57 12 156 17 408 21 l332 5 0
479 0 479 -192 0 c-684 0 -1118 -200 -1421 -653 l-46 -69 -6 34 c-10 59 -105
672 -105 680 0 4 -207 8 -460 8 l-460 0 0 -2425z"/>
<path d="M43260 9051 c0 -5 423 -1103 939 -2440 l940 -2431 -129 -320 c-71
-176 -143 -347 -162 -381 -40 -76 -116 -161 -172 -194 -100 -57 -112 -58 -621
-64 l-470 -6 0 -450 0 -450 560 -3 c604 -3 745 3 900 43 322 81 531 303 735
780 60 140 2320 5903 2320 5916 0 5 -237 9 -543 9 l-543 0 -654 -1831 c-360
-1007 -657 -1832 -660 -1834 -3 -2 -309 822 -680 1831 l-674 1834 -543 0
c-324 0 -543 -4 -543 -9z"/>
</g>
</svg>
